<?xml version="1.0" encoding="UTF-8" standalone="no"?><svg xmlns="http://www.w3.org/2000/svg" viewBox="0 0 420.52 420.3"><defs><style>.cls-1{fill:#79eda1;}</style></defs><g id="Layer_2" data-name="Layer 2"><g id="Layer_1-2" data-name="Layer 1"><path class="cls-1" d="M365.44,56.33C324.91,87.74,288,116.36,245,149.6,251.8,95.8,257.7,48.89,263.84,0H156.78c6.22,49.57,12.09,96.37,18.79,149.72L55.07,56.16c-18.8,32.54-35.79,62-54.55,94.46L142.7,210.05,0,268.64c20.22,34.21,37,62.61,55.48,93.86l120-92.22c-7,56.35-12.61,101.46-18.65,150H264.07c-6.3-51.33-11.9-97-18.55-151.18l120.16,94.19,54.38-94.74L278.65,209.66,420.52,150.4Z"/></g></g></svg>